<svg width="33" height="33" viewBox="0 0 33 33" fill="none" xmlns="http://www.w3.org/2000/svg">
<rect width="32.003" height="32.003" fill="white"/>
<g clip-path="url(#clip0_3837_74284)">
<path d="M7.92969 2.00146H9.1875V3.24834H10.3469V2.00146H11.6047V5.7749H10.3469V4.51709H9.19844V5.7749H7.92969M13.2672 3.25928H12.157V2.00146H15.6406V3.25928H14.525V5.7749H13.2672M16.193 2.00146H17.5109L18.3203 3.33037L19.1297 2.00146H20.4477V5.7749H19.1898V3.90459L18.3094 5.26084L17.4289 3.90459V5.7749H16.193M21.0711 2.00146H22.3289V4.52803H24.1117V5.7749H21.0711" fill="black"/>
<path d="M7.88672 27.7597L6.08203 7.50342H25.9227L24.118 27.7487L15.9859 30.0019" fill="#E44D26"/>
<path d="M16.002 28.2788V9.16553H24.1121L22.5645 26.4468" fill="#F16529"/>
<path d="M9.76758 11.6421H16.002V14.1249H12.491L12.7207 16.6679H16.002V19.1452H10.4457M10.5551 20.3921H13.0488L13.2238 22.3772L16.002 23.121V25.7132L10.9051 24.2913" fill="#EBEBEB"/>
<path d="M22.2146 11.6421H15.9912V14.1249H21.985M21.7607 16.6679H15.9912V19.1507H19.0537L18.7639 22.3772L15.9912 23.121V25.7022L21.0771 24.2913" fill="white"/>
</g>
<defs>
<clipPath id="clip0_3837_74284">
<rect width="28" height="28" fill="white" transform="translate(2.00195 2.00146)"/>
</clipPath>
</defs>
</svg>
