<svg width="32" height="32" viewBox="0 0 32 32" fill="none" xmlns="http://www.w3.org/2000/svg">
<rect width="32" height="32" fill="white"/>
<path d="M28.8896 13.3247L28.8536 13.2288L25.2242 3.76144C25.1507 3.57555 25.02 3.41785 24.851 3.31119C24.7248 3.23044 24.5815 3.18037 24.4326 3.16499C24.2836 3.1496 24.1331 3.16933 23.9931 3.22259C23.8532 3.27584 23.7276 3.36115 23.6266 3.47168C23.5255 3.5822 23.4517 3.71486 23.4112 3.85903L20.9613 11.3593H11.0402L8.59037 3.85903C8.5495 3.71508 8.47557 3.58266 8.37446 3.47235C8.27335 3.36204 8.14786 3.27688 8.008 3.22367C7.86814 3.17045 7.71779 3.15065 7.56892 3.16585C7.42005 3.18104 7.2768 3.23081 7.15058 3.31119C6.98154 3.41785 6.85082 3.57555 6.77736 3.76144L3.14963 13.2305L3.11196 13.3247C2.58968 14.6897 2.52533 16.1875 2.92863 17.5922C3.33193 18.997 4.18101 20.2325 5.34784 21.1126L5.36154 21.1229L5.39235 21.1468L10.9136 25.2847L13.6528 27.3545L15.3168 28.6129C15.5121 28.7603 15.7501 28.8401 15.9948 28.8401C16.2395 28.8401 16.4775 28.7603 16.6727 28.6129L18.3368 27.3545L21.076 25.2847L26.6366 21.1229L26.652 21.1109C27.8188 20.2311 28.6679 18.996 29.0715 17.5916C29.4751 16.1872 29.4113 14.6896 28.8896 13.3247V13.3247Z" fill="#E24329"/>
<path d="M28.8601 13.3234L28.8242 13.2275C27.0558 13.5904 25.3896 14.3399 23.945 15.4223L15.9756 21.4486L21.05 25.2835L26.6105 21.1216L26.626 21.1096C27.7921 20.2294 28.6406 18.9941 29.0436 17.5897C29.4466 16.1853 29.3822 14.688 28.8601 13.3234V13.3234Z" fill="#FC6D26"/>
<path d="M10.8848 25.2839L13.624 27.3537L15.288 28.612C15.4833 28.7595 15.7213 28.8393 15.966 28.8393C16.2107 28.8393 16.4487 28.7595 16.6439 28.612L18.308 27.3537L21.0472 25.2839L15.9728 21.449L10.8848 25.2839Z" fill="#FCA326"/>
<path d="M8.02712 15.4233C6.58298 14.3414 4.91733 13.5925 3.14963 13.2302L3.11196 13.3244C2.58968 14.6894 2.52533 16.1872 2.92863 17.5919C3.33193 18.9967 4.18101 20.2322 5.34784 21.1123L5.36154 21.1226L5.39235 21.1465L10.9136 25.2844L15.9914 21.4495L8.02712 15.4233Z" fill="#FC6D26"/>
</svg>
