<svg width="32" height="32" viewBox="0 0 32 32" fill="none" xmlns="http://www.w3.org/2000/svg">
<rect width="32" height="32" fill="white"/>
<g clip-path="url(#clip0_3705_74640)">
<path fill-rule="evenodd" clip-rule="evenodd" d="M16.0003 2.6665C8.63366 2.6665 2.66699 8.63317 2.66699 15.9998C2.66699 21.8998 6.48366 26.8832 11.7837 28.6498C12.4503 28.7665 12.7003 28.3665 12.7003 28.0165C12.7003 27.6998 12.6837 26.6498 12.6837 25.5332C9.33366 26.1498 8.46699 24.7165 8.20032 23.9665C8.05032 23.5832 7.40032 22.3998 6.83366 22.0832C6.36699 21.8332 5.70032 21.2165 6.81699 21.1998C7.86699 21.1832 8.61699 22.1665 8.86699 22.5665C10.067 24.5832 11.9837 24.0165 12.7503 23.6665C12.867 22.7998 13.217 22.2165 13.6003 21.8832C10.6337 21.5498 7.53366 20.3998 7.53366 15.2998C7.53366 13.8498 8.05032 12.6498 8.90032 11.7165C8.76699 11.3832 8.30032 10.0165 9.03366 8.18317C9.03366 8.18317 10.1503 7.83317 12.7003 9.54983C13.767 9.24983 14.9003 9.09983 16.0337 9.09983C17.167 9.09983 18.3003 9.24983 19.367 9.54983C21.917 7.8165 23.0337 8.18317 23.0337 8.18317C23.767 10.0165 23.3003 11.3832 23.167 11.7165C24.017 12.6498 24.5336 13.8332 24.5336 15.2998C24.5336 20.4165 21.417 21.5498 18.4503 21.8832C18.9337 22.2998 19.3503 23.0998 19.3503 24.3498C19.3503 26.1332 19.3337 27.5665 19.3337 28.0165C19.3337 28.3665 19.5837 28.7832 20.2503 28.6498C22.8972 27.7563 25.1973 26.0551 26.8267 23.7859C28.4562 21.5166 29.3329 18.7935 29.3336 15.9998C29.3336 8.63317 23.367 2.6665 16.0003 2.6665Z" fill="black"/>
</g>
<defs>
<clipPath id="clip0_3705_74640">
<rect width="26.6667" height="26.6667" fill="white" transform="translate(2.66699 2.6665)"/>
</clipPath>
</defs>
</svg>
