<svg width="32" height="32" viewBox="0 0 32 32" fill="none" xmlns="http://www.w3.org/2000/svg">
<rect width="32" height="32" fill="white"/>
<g clip-path="url(#clip0_3705_74519)">
<path d="M16.0009 18.7325C17.5105 18.7325 18.7342 17.5088 18.7342 15.9992C18.7342 14.4896 17.5105 13.2659 16.0009 13.2659C14.4913 13.2659 13.2676 14.4896 13.2676 15.9992C13.2676 17.5088 14.4913 18.7325 16.0009 18.7325Z" fill="#61DAFB"/>
<path d="M16.0006 21.6006C24.1008 21.6006 30.6673 19.0934 30.6673 16.0006C30.6673 12.9078 24.1008 10.4006 16.0006 10.4006C7.90047 10.4006 1.33398 12.9078 1.33398 16.0006C1.33398 19.0934 7.90047 21.6006 16.0006 21.6006Z" stroke="#61DAFB" stroke-width="1.33333"/>
<path d="M11.1514 18.8C15.2015 25.8149 20.6561 30.2481 23.3345 28.7017C26.0129 27.1553 24.901 20.2149 20.8509 13.2C16.8008 6.18504 11.3463 1.75189 8.66784 3.29829C5.9894 4.84469 7.10134 11.785 11.1514 18.8Z" stroke="#61DAFB" stroke-width="1.33333"/>
<path d="M11.1518 13.1996C7.10167 20.2146 5.98973 27.1549 8.66817 28.7013C11.3466 30.2477 16.8012 25.8146 20.8512 18.7996C24.9013 11.7846 26.0133 4.8443 23.3348 3.2979C20.6564 1.7515 15.2018 6.18465 11.1518 13.1996Z" stroke="#61DAFB" stroke-width="1.33333"/>
</g>
<defs>
<clipPath id="clip0_3705_74519">
<rect width="30.6667" height="27.2846" fill="white" transform="translate(0.666992 2.35767)"/>
</clipPath>
</defs>
</svg>
