<svg width="32" height="32" viewBox="0 0 32 32" fill="none" xmlns="http://www.w3.org/2000/svg">
<g clip-path="url(#clip0_3707_81986)">
<rect width="32" height="32" fill="#3178C6"/>
<g clip-path="url(#clip1_3707_81986)">
<path d="M28.875 0H3.125C1.39911 0 0 1.39911 0 3.125V28.875C0 30.6009 1.39911 32 3.125 32H28.875C30.6009 32 32 30.6009 32 28.875V3.125C32 1.39911 30.6009 0 28.875 0Z" fill="#3178C6"/>
<path fill-rule="evenodd" clip-rule="evenodd" d="M19.8125 25.4373V28.5623C20.3188 28.8248 20.9375 29.0186 21.625 29.1498C22.3125 29.2811 23.0625 29.3436 23.8125 29.3436C24.5625 29.3436 25.25 29.2748 25.9375 29.1311C26.625 28.9873 27.1875 28.7498 27.6875 28.4436C28.1938 28.1123 28.625 27.6936 28.875 27.1311C29.125 26.5686 29.3188 25.9436 29.3188 25.1311C29.3188 24.5623 29.2313 24.0686 29.0625 23.6311C28.8937 23.1936 28.65 22.8186 28.3125 22.5061C27.9938 22.1748 27.625 21.8811 27.1875 21.6311C26.75 21.3811 26.25 21.1186 25.6875 20.8811C25.275 20.7123 24.9375 20.5498 24.5625 20.3873C24.2375 20.2248 23.9562 20.0623 23.75 19.8998C23.5187 19.7311 23.3438 19.5561 23.2188 19.3748C23.0938 19.1873 23.0312 18.9811 23.0312 18.7498C23.0312 18.5373 23.0869 18.3436 23.2 18.1686C23.3131 17.9936 23.4688 17.8498 23.6688 17.7248C23.8688 17.5998 24.1188 17.5061 24.4188 17.4373C24.7125 17.3686 25.0375 17.3373 25.4188 17.3373C25.6813 17.3373 25.9563 17.3567 26.2313 17.3961C26.5188 17.4355 26.8125 17.4961 27.1063 17.5773C27.4 17.6586 27.6875 17.7586 27.9813 17.8836C28.2563 18.0086 28.5125 18.1523 28.7313 18.3148V15.3773C28.2563 15.1961 27.7313 15.0586 27.1688 14.9711C26.6063 14.8836 25.9813 14.8398 25.2313 14.8398C24.4813 14.8398 23.7938 14.9211 23.1063 15.0773C22.4188 15.2336 21.8563 15.4836 21.3563 15.8273C20.85 16.1648 20.4813 16.5773 20.1688 17.1398C19.875 17.6648 19.7313 18.2648 19.7313 19.0148C19.7313 19.9523 20 20.7648 20.5438 21.3898C21.0813 22.0773 21.9188 22.5773 22.9813 23.0773C23.4125 23.2523 23.7938 23.4273 24.1688 23.5961C24.5438 23.7648 24.8563 23.9398 25.1063 24.1211C25.375 24.3023 25.5875 24.5023 25.7313 24.7148C25.8875 24.9273 25.9688 25.1773 25.9688 25.4648C25.9688 25.6648 25.92 25.8523 25.825 26.0273C25.73 26.2023 25.5813 26.3523 25.3813 26.4773C25.1813 26.6023 24.9375 26.7023 24.6313 26.7773C24.3375 26.8461 24.0063 26.8836 23.5688 26.8836C22.8813 26.8836 22.1938 26.7648 21.5688 26.5273C20.8813 26.2898 20.2563 25.9336 19.6938 25.4648L19.8125 25.4373ZM14.5625 17.7498H18.5625V15.1873H7.375V17.7498H11.375V29.1873H14.5625V17.7498Z" fill="white"/>
</g>
</g>
<defs>
<clipPath id="clip0_3707_81986">
<rect width="32" height="32" fill="white"/>
</clipPath>
<clipPath id="clip1_3707_81986">
<rect width="32" height="32" fill="white"/>
</clipPath>
</defs>
</svg>
