<svg width="32" height="32" viewBox="0 0 32 32" fill="none" xmlns="http://www.w3.org/2000/svg">
<rect width="32" height="32" fill="white"/>
<g clip-path="url(#clip0_7200_1079)">
<mask id="mask0_7200_1079" style="mask-type:luminance" maskUnits="userSpaceOnUse" x="2" y="2" width="28" height="28">
<path d="M29.5 2.5H2.5V29.5H29.5V2.5Z" fill="white"/>
</mask>
<g mask="url(#mask0_7200_1079)">
<g filter="url(#filter0_d_7200_1079)">
<path d="M22.2723 11.8687L16.3588 20.4188C16.2961 20.5095 16.2054 20.5774 16.1005 20.6122C15.9956 20.6471 15.8822 20.6467 15.7776 20.6117C15.6729 20.5765 15.5826 20.5083 15.5205 20.4175C15.4584 20.3265 15.4277 20.2179 15.4332 20.1081L15.6699 15.3875L11.8492 14.5772C11.7675 14.5599 11.6914 14.5228 11.6277 14.4692C11.5639 14.4157 11.5144 14.3472 11.4836 14.27C11.4527 14.1928 11.4415 14.1092 11.4509 14.0265C11.4603 13.9439 11.49 13.8649 11.5374 13.7964L17.451 5.24623C17.5137 5.15552 17.6043 5.08763 17.7092 5.05283C17.8141 5.01802 17.9275 5.0182 18.0322 5.05337C18.1369 5.08851 18.2271 5.15672 18.2893 5.24763C18.3514 5.33853 18.382 5.44717 18.3765 5.55707L18.1398 10.2777L21.9605 11.0879C22.0422 11.1052 22.1183 11.1423 22.1821 11.1959C22.2459 11.2495 22.2953 11.3179 22.3261 11.3951C22.357 11.4723 22.3681 11.5559 22.3588 11.6386C22.3495 11.7212 22.3197 11.8002 22.2723 11.8687Z" fill="#FCC72B"/>
<path d="M16.0795 27.5927C15.9223 27.5929 15.7665 27.5621 15.6212 27.5019C15.4759 27.4417 15.3439 27.3533 15.2328 27.242L9.64523 21.6548C9.4217 21.4302 9.29641 21.126 9.29681 20.809C9.29724 20.492 9.42334 20.188 9.64749 19.964C9.87162 19.7398 10.1755 19.6136 10.4925 19.6131C10.8095 19.6128 11.1137 19.738 11.3385 19.9615L16.0795 24.7021L26.408 14.3741C26.6332 14.1526 26.9367 14.029 27.2525 14.0303C27.5685 14.0316 27.8711 14.1576 28.0943 14.381C28.3176 14.6043 28.4438 14.9069 28.4451 15.2227C28.4463 15.5386 28.3227 15.8422 28.1012 16.0673L16.926 27.242C16.815 27.3535 16.6831 27.4417 16.5378 27.5019C16.3925 27.5621 16.2368 27.5929 16.0795 27.5927Z" fill="#729B1B"/>
<path d="M16.0747 27.5927C16.232 27.5929 16.3878 27.5621 16.5331 27.5019C16.6784 27.4417 16.8104 27.3533 16.9215 27.242L22.5091 21.6548C22.7326 21.4302 22.8579 21.126 22.8574 20.809C22.8571 20.492 22.7309 20.188 22.5068 19.964C22.2826 19.7398 21.9787 19.6136 21.6617 19.6131C21.3448 19.6128 21.0406 19.738 20.8157 19.9615L16.0747 24.7021L5.74629 14.3741C5.52113 14.1526 5.21755 14.029 4.9017 14.0303C4.58583 14.0316 4.28327 14.1576 4.05992 14.381C3.83657 14.6043 3.71052 14.9069 3.70924 15.2227C3.70795 15.5386 3.83153 15.8422 4.05305 16.0673L15.2282 27.242C15.3393 27.3535 15.4712 27.4417 15.6165 27.5019C15.7618 27.5621 15.9175 27.5929 16.0747 27.5927Z" fill="#729B1B" fill-opacity="0.5"/>
</g>
</g>
</g>
<defs>
<filter id="filter0_d_7200_1079" x="2.72741" y="4.20867" width="27.3541" height="25.1841" filterUnits="userSpaceOnUse" color-interpolation-filters="sRGB">
<feFlood flood-opacity="0" result="BackgroundImageFix"/>
<feColorMatrix in="SourceAlpha" type="matrix" values="0 0 0 0 0 0 0 0 0 0 0 0 0 0 0 0 0 0 127 0" result="hardAlpha"/>
<feOffset dx="0.327273" dy="0.490909"/>
<feGaussianBlur stdDeviation="0.654545"/>
<feComposite in2="hardAlpha" operator="out"/>
<feColorMatrix type="matrix" values="0 0 0 0 0.108333 0 0 0 0 0.108333 0 0 0 0 0.108333 0 0 0 0.2 0"/>
<feBlend mode="normal" in2="BackgroundImageFix" result="effect1_dropShadow_7200_1079"/>
<feBlend mode="normal" in="SourceGraphic" in2="effect1_dropShadow_7200_1079" result="shape"/>
</filter>
<clipPath id="clip0_7200_1079">
<rect width="27" height="27" fill="white" transform="translate(2.5 2.5)"/>
</clipPath>
</defs>
</svg>
