<svg width="32" height="33" viewBox="0 0 32 33" fill="none" xmlns="http://www.w3.org/2000/svg">
<rect width="31.997" height="31.997" transform="translate(0 0.669434)" fill="white"/>
<path fill-rule="evenodd" clip-rule="evenodd" d="M25.5462 6.72796L26.1441 7.51521C26.3011 7.72299 26.2618 8.02081 26.0541 8.17779L25.4192 8.6603C25.5346 8.96735 25.6085 9.29518 25.6385 9.62993L26.3611 9.72921C26.6197 9.76384 26.7998 10.0039 26.7651 10.2625L26.6312 11.2437C26.5966 11.5022 26.3565 11.6846 26.0979 11.6477L25.3084 11.5392C25.1676 11.8462 24.9875 12.1279 24.7751 12.3795L25.2183 12.9613C25.3753 13.1691 25.3338 13.4669 25.126 13.6239L24.3387 14.2218C24.131 14.3788 23.8332 14.3373 23.6762 14.1318L23.1937 13.4969C22.8843 13.6124 22.5588 13.6862 22.2217 13.7162L22.1224 14.4388C22.0878 14.6974 21.8477 14.8775 21.5891 14.8429L20.608 14.709C20.3494 14.6743 20.1693 14.4342 20.204 14.1757L20.3125 13.3861C20.0077 13.2453 19.7238 13.0652 19.4721 12.8551L18.8903 13.2961C18.6826 13.4531 18.3847 13.4138 18.2278 13.206L17.6298 12.4188C17.4728 12.211 17.5121 11.9132 17.7199 11.7562L18.3547 11.2737C18.2393 10.9643 18.1654 10.6388 18.1354 10.3041L17.4128 10.2048C17.1542 10.1702 16.9719 9.93006 17.0088 9.67149L17.1427 8.69031C17.1796 8.43175 17.4174 8.25167 17.676 8.2863L18.4655 8.39481C18.6064 8.09007 18.7864 7.8061 18.9965 7.55446L18.5556 6.97268C18.3986 6.76721 18.4378 6.4694 18.6456 6.31241L19.4329 5.71447C19.6406 5.55748 19.9385 5.59673 20.0955 5.80451L20.578 6.43938C20.885 6.32395 21.2128 6.25007 21.5476 6.22006L21.6469 5.49745C21.6815 5.23889 21.9216 5.0565 22.1802 5.09113L23.1613 5.22503C23.4199 5.25966 23.6023 5.49976 23.5653 5.75833L23.4568 6.54789C23.7639 6.68872 24.0455 6.86879 24.2995 7.08119L24.8813 6.64024C25.0891 6.48094 25.3869 6.52019 25.5462 6.72796ZM8.66534 20.5822V16.7729H10.6277C10.9925 16.7729 11.2695 16.8029 11.4611 16.8675C11.6527 16.9299 11.8097 17.0453 11.9252 17.2138C12.0429 17.3847 12.1029 17.5902 12.1029 17.8326C12.1029 18.0426 12.0567 18.2273 11.9667 18.3797C11.8767 18.5344 11.752 18.6591 11.595 18.7537C11.4957 18.8137 11.3572 18.8645 11.1818 18.9038C11.3226 18.9523 11.4242 18.9961 11.4865 19.0446C11.5304 19.0769 11.5927 19.1439 11.6735 19.2455C11.7543 19.347 11.8097 19.4278 11.8374 19.4832L12.41 20.5845H11.0802L10.4522 19.4232C10.3714 19.2732 10.3022 19.1739 10.2398 19.13C10.1544 19.0723 10.0575 19.0423 9.95126 19.0423H9.84737V20.5845H8.66534V20.5822ZM12.8163 27.2149H10.6185L10.3022 28.2492H8.32135L10.6831 21.972H12.8071L15.1596 28.2492H13.128L12.8163 27.2149ZM12.4053 25.8551L11.7197 23.5973L11.0317 25.8551H12.4053ZM15.6167 21.972H18.8442C19.5483 21.972 20.0747 22.1382 20.4233 22.4729C20.7719 22.8077 20.9473 23.2856 20.9473 23.902C20.9473 24.5369 20.7557 25.0332 20.3748 25.3911C19.9939 25.7489 19.4098 25.9267 18.6272 25.9267H17.5629V28.2492H15.6167V21.972ZM17.5629 24.6546H18.0408C18.4171 24.6546 18.6826 24.59 18.8349 24.4584C18.9873 24.3291 19.0635 24.1606 19.0635 23.9597C19.0635 23.7635 18.9965 23.5949 18.8649 23.4587C18.7334 23.3225 18.484 23.2533 18.1193 23.2533H17.5629V24.6546ZM21.7323 21.972H23.6785V28.2492H21.7323V21.972ZM9.84737 18.3197H10.3437C10.3968 18.3197 10.5007 18.3012 10.6554 18.2666C10.7339 18.2504 10.7985 18.2112 10.847 18.1465C10.8978 18.0819 10.9209 18.008 10.9209 17.9249C10.9209 17.8025 10.8816 17.7056 10.8031 17.6409C10.7247 17.574 10.5792 17.5417 10.3645 17.5417H9.84737V18.3197ZM12.6362 16.7729H15.7875V17.5855H13.8182V18.1927H15.6444V18.9684H13.8182V19.7187H15.8452V20.5798H12.6362V16.7729ZM16.1246 19.3216L17.242 19.2524C17.2651 19.4348 17.3158 19.571 17.3897 19.6656C17.5121 19.818 17.6852 19.8965 17.9092 19.8965C18.0754 19.8965 18.207 19.8572 18.297 19.7787C18.3871 19.7003 18.4332 19.6079 18.4332 19.504C18.4332 19.4047 18.3894 19.317 18.3039 19.2385C18.2185 19.16 18.0177 19.0885 17.7014 19.0169C17.1866 18.9015 16.8195 18.7468 16.5979 18.5552C16.3762 18.3635 16.2654 18.1188 16.2654 17.821C16.2654 17.6248 16.3231 17.4401 16.4362 17.2669C16.5494 17.0938 16.7202 16.9553 16.9488 16.856C17.1773 16.7567 17.489 16.7082 17.8861 16.7082C18.3732 16.7082 18.7426 16.7983 18.9988 16.9807C19.2528 17.1631 19.4052 17.4493 19.4536 17.8464L18.3478 17.9134C18.3178 17.7402 18.2555 17.6132 18.1631 17.5371C18.0685 17.4586 17.9369 17.4193 17.773 17.4193C17.6367 17.4193 17.5329 17.4493 17.4636 17.507C17.3943 17.5648 17.3597 17.6363 17.3597 17.7194C17.3597 17.7795 17.3897 17.8326 17.4451 17.8833C17.5005 17.9318 17.6298 17.9803 17.8376 18.0242C18.3524 18.135 18.7218 18.2481 18.9434 18.3612C19.1651 18.4744 19.329 18.6152 19.4283 18.7837C19.5298 18.9499 19.5806 19.1393 19.5806 19.347C19.5806 19.5917 19.5137 19.8157 19.3775 20.0212C19.2436 20.2266 19.0543 20.3836 18.8118 20.4898C18.5694 20.596 18.2647 20.6491 17.8953 20.6491C17.2489 20.6491 16.7987 20.5244 16.5494 20.2751C16.3 20.0212 16.1592 19.7049 16.1246 19.3216ZM19.7515 16.7729H23.3322V17.7148H22.1317V20.5822H20.9543V17.7148H19.7515V16.7729ZM15.7898 7.73223C15.3673 7.6999 14.9402 7.70452 14.5178 7.74608C13.218 7.87074 11.9552 8.34402 10.9117 9.15435C9.70423 10.0894 8.7877 11.4884 8.43448 13.3422L8.32366 13.9217L7.7465 14.0233C7.18088 14.1226 6.67529 14.2588 6.23203 14.4319C5.80262 14.5981 5.41938 14.8036 5.08463 15.046C4.81683 15.2399 4.58596 15.457 4.38973 15.6924C3.78255 16.4197 3.5009 17.3316 3.50782 18.255C3.51475 19.1924 3.81949 20.1389 4.3828 20.9169C4.59289 21.2055 4.83529 21.471 5.11233 21.7019C5.39399 21.935 5.71027 22.129 6.0658 22.2744C6.26666 22.3575 6.48136 22.4268 6.7053 22.4822V24.2114C6.24357 24.1282 5.81878 24.0036 5.42169 23.8397C4.89763 23.6226 4.43359 23.3433 4.02496 23.0016C3.63711 22.6784 3.29774 22.3113 3.00915 21.9119C2.24037 20.85 1.82482 19.5525 1.81558 18.2597C1.80635 16.953 2.21267 15.6532 3.08996 14.6005C3.37392 14.2588 3.70867 13.9448 4.09191 13.6678C4.53748 13.3445 5.04769 13.0721 5.62485 12.8482C6.02194 12.6935 6.44673 12.5642 6.89461 12.4603C7.40251 10.4426 8.48527 8.88886 9.87738 7.81072C11.1795 6.80184 12.747 6.21314 14.3608 6.05846C15.208 5.97765 16.0669 6.01459 16.9072 6.17158C16.8887 6.24777 16.8726 6.32395 16.8633 6.40244L16.861 6.4163C16.8449 6.54789 16.838 6.67948 16.8449 6.81338C16.6671 6.88264 16.5009 6.9773 16.3508 7.09273L16.3439 7.09735C16.12 7.26588 15.9307 7.48289 15.7898 7.73223ZM28.0049 12.1648C28.1342 12.2826 28.2588 12.4049 28.3812 12.5365C28.6282 12.802 28.8614 13.1021 29.0807 13.4369C29.8195 14.5727 30.1981 16.0895 30.1819 17.574C30.1658 19.0307 29.7733 20.4806 28.9699 21.5472C28.4458 22.2421 27.774 22.81 26.9683 23.2602C26.4165 23.5695 25.7955 23.8258 25.1191 24.0336V22.2444C25.4838 22.1082 25.8232 21.9558 26.1349 21.7827C26.742 21.4433 27.2384 21.03 27.6101 20.5337C28.1873 19.7649 28.4712 18.6775 28.4828 17.5624C28.4966 16.392 28.2103 15.2169 27.654 14.3627C27.4947 14.1156 27.3192 13.894 27.1345 13.6955C27.0629 13.6193 26.9914 13.5477 26.9175 13.4784C26.929 13.363 26.9337 13.2453 26.9267 13.1275C27.1045 13.0583 27.2707 12.9636 27.4208 12.8482L27.4277 12.8436C27.6655 12.6612 27.8641 12.4303 28.0049 12.1648ZM22.1501 8.04158C23.2144 8.18703 23.9578 9.1682 23.8124 10.2325C23.6669 11.2968 22.6858 12.0425 21.6215 11.897C20.5572 11.7516 19.8115 10.7704 19.9592 9.70612C20.107 8.64183 21.0859 7.89614 22.1501 8.04158Z" fill="black"/>
</svg>
