<svg width="33" height="33" viewBox="0 0 33 33" fill="none" xmlns="http://www.w3.org/2000/svg">
<rect width="32.003" height="32.003" fill="white"/>
<g clip-path="url(#clip0_3707_80986)">
<path d="M25.4478 7.90918L23.7265 27.1922L15.9892 29.3373L8.27319 27.1952L6.55371 7.90918H25.4478Z" fill="#264DE4"/>
<path d="M22.2541 25.9636L23.7251 9.48535H16.002V27.6969L22.2541 25.9636Z" fill="#2965F1"/>
<path d="M10.4951 16.6377L10.7071 19.003H16.0003V16.6377H10.4951Z" fill="#EBEBEB"/>
<path d="M16.0005 11.8506H15.9923H10.0693L10.2844 14.216H16.0005V11.8506Z" fill="#EBEBEB"/>
<path d="M16.001 25.2425V22.7816L15.9906 22.7843L13.3563 22.073L13.1879 20.1865H11.9079H10.8135L11.1449 23.9005L15.9901 25.2455L16.001 25.2425Z" fill="#EBEBEB"/>
<path d="M11.001 2.66699H13.8658V3.86502H12.199V5.06305H13.8658V6.26108H11.001V2.66699Z" fill="black"/>
<path d="M14.4385 2.66699H17.3033V3.70876H15.6365V3.91711H17.3033V6.31316H14.4385V5.21931H16.1053V5.01096H14.4385V2.66699Z" fill="black"/>
<path d="M17.877 2.66699H20.7418V3.70876H19.075V3.91711H20.7418V6.31316H17.877V5.21931H19.5438V5.01096H17.877V2.66699Z" fill="black"/>
<path d="M18.9049 19.0034L18.6303 22.0711L15.9922 22.7832V25.244L20.8413 23.9001L20.8769 23.5005L21.4327 17.2733L21.4904 16.6381L21.9174 11.8506H15.9922V14.216H19.3252L19.11 16.6381H15.9922V19.0034H18.9049Z" fill="white"/>
</g>
<defs>
<clipPath id="clip0_3707_80986">
<rect width="18.8941" height="26.6691" fill="white" transform="translate(6.55371 2.66699)"/>
</clipPath>
</defs>
</svg>
