<svg width="33" height="33" viewBox="0 0 33 33" fill="none" xmlns="http://www.w3.org/2000/svg">
<rect width="32.003" height="32.003" transform="translate(0 0.515625)" fill="#1B1B1B"/>
<g clip-path="url(#clip0_3705_75108)">
<path d="M12.0031 29.0174C14.2107 29.0174 16.0023 27.1507 16.0023 24.8507V20.6841H12.0031C9.79555 20.6841 8.00391 22.5507 8.00391 24.8507C8.00391 27.1507 9.79555 29.0174 12.0031 29.0174Z" fill="#0ACF83"/>
<path d="M8.00391 16.518C8.00391 14.218 9.79555 12.3513 12.0031 12.3513H16.0023V20.6847H12.0031C9.79555 20.6847 8.00391 18.818 8.00391 16.518Z" fill="#A259FF"/>
<path d="M8.00391 8.18376C8.00391 5.88376 9.79555 4.01709 12.0031 4.01709H16.0023V12.3504H12.0031C9.79555 12.3504 8.00391 10.4838 8.00391 8.18376Z" fill="#F24E1E"/>
<path d="M16.002 4.01709H20.0012C22.2087 4.01709 24.0004 5.88376 24.0004 8.18376C24.0004 10.4838 22.2087 12.3504 20.0012 12.3504H16.002V4.01709Z" fill="#FF7262"/>
<path d="M24.0004 16.5177C24.0004 18.8177 22.2087 20.6844 20.0012 20.6844C17.7936 20.6844 16.002 18.8177 16.002 16.5177C16.002 14.2177 17.7936 12.3511 20.0012 12.3511C22.2087 12.3511 24.0004 14.2177 24.0004 16.5177Z" fill="#1ABCFE"/>
</g>
<defs>
<clipPath id="clip0_3705_75108">
<rect width="16" height="25" fill="white" transform="translate(8.00195 4.01709)"/>
</clipPath>
</defs>
</svg>
