<svg width="32" height="32" viewBox="0 0 32 32" fill="none" xmlns="http://www.w3.org/2000/svg">
<rect width="32" height="32" fill="white"/>
<path d="M27.9139 7.54667L16.6463 27.6951C16.4136 28.1111 15.8159 28.1136 15.5798 27.6996L4.08877 7.54861C3.83152 7.09749 4.21727 6.55106 4.72848 6.64243L16.0082 8.65861C16.0801 8.67147 16.1538 8.67135 16.2257 8.65824L27.2695 6.64532C27.779 6.55246 28.1666 7.09466 27.9139 7.54667Z" fill="url(#paint0_linear_7200_1066)"/>
<path d="M21.3813 3.99761L13.0429 5.63148C12.9059 5.65834 12.8044 5.77448 12.7961 5.91386L12.2832 14.5768C12.2711 14.7808 12.4585 14.9392 12.6577 14.8933L14.9792 14.3575C15.1964 14.3074 15.3927 14.4987 15.348 14.7171L14.6583 18.0946C14.6119 18.3219 14.8253 18.5163 15.0473 18.4488L16.4812 18.0132C16.7035 17.9457 16.9171 18.1406 16.87 18.3681L15.7739 23.6733C15.7054 24.0052 16.1468 24.1861 16.3308 23.9016L16.4538 23.7116L23.2484 10.1519C23.3622 9.92482 23.166 9.66594 22.9166 9.71406L20.527 10.1753C20.3024 10.2185 20.1114 10.0094 20.1747 9.78972L21.7344 4.38295C21.7978 4.16288 21.6061 3.95357 21.3813 3.99761Z" fill="url(#paint1_linear_7200_1066)"/>
<defs>
<linearGradient id="paint0_linear_7200_1066" x1="3.80821" y1="5.92235" x2="17.8316" y2="24.9673" gradientUnits="userSpaceOnUse">
<stop stop-color="#41D1FF"/>
<stop offset="1" stop-color="#BD34FE"/>
</linearGradient>
<linearGradient id="paint1_linear_7200_1066" x1="15.3608" y1="4.4412" x2="17.8975" y2="21.8432" gradientUnits="userSpaceOnUse">
<stop stop-color="#FFEA83"/>
<stop offset="0.0833333" stop-color="#FFDD35"/>
<stop offset="1" stop-color="#FFA800"/>
</linearGradient>
</defs>
</svg>
