<svg width="32" height="32" viewBox="0 0 32 32" fill="none" xmlns="http://www.w3.org/2000/svg">
<rect width="32" height="32" fill="white"/>
<path fill-rule="evenodd" clip-rule="evenodd" d="M26.5179 21.1896C26.5179 22.1814 25.9936 22.4088 25.9936 22.4088C25.9936 22.4088 17.0549 27.5635 16.4737 27.892C16.325 27.9675 16.1605 28.0068 15.9937 28.0068C15.8268 28.0068 15.6623 27.9675 15.5136 27.892C15.5136 27.892 6.17062 22.472 5.82949 22.2319C5.72701 22.1603 5.64236 22.0661 5.58212 21.9566C5.52187 21.847 5.48763 21.7251 5.48206 21.6002C5.48206 21.6002 5.48206 10.8612 5.48206 10.3685C5.48206 9.87575 6.11376 9.52831 6.11376 9.52831L15.4314 4.12722C15.607 4.03938 15.8005 3.99365 15.9968 3.99365C16.1931 3.99365 16.3867 4.03938 16.5622 4.12722C16.5622 4.12722 24.8123 8.92187 25.6967 9.43987C25.9471 9.54799 26.1576 9.73136 26.2991 9.96454C26.4406 10.1977 26.506 10.4691 26.4863 10.7412C26.4863 10.7412 26.4863 20.261 26.4863 21.1896H26.5179ZM22.7908 10.4506C20.8957 9.35143 16.3727 6.74248 16.3727 6.74248C16.2343 6.67351 16.0819 6.63761 15.9273 6.63761C15.7728 6.63761 15.6203 6.67351 15.482 6.74248L8.14786 10.9433C8.14786 10.9433 7.66144 11.2339 7.66776 11.6256C7.67408 12.0172 7.66776 20.4189 7.66776 20.4189C7.67471 20.5132 7.70272 20.6047 7.74973 20.6867C7.79674 20.7687 7.86156 20.8391 7.93939 20.8927C8.21103 21.0822 15.5199 25.3147 15.5199 25.3147C15.6361 25.3745 15.765 25.4057 15.8957 25.4057C16.0265 25.4057 16.1554 25.3745 16.2716 25.3147C16.7264 25.062 23.7384 21.0254 23.7384 21.0254C23.7384 21.0254 24.149 20.8485 24.149 20.0715C24.149 19.8441 24.149 18.9723 24.149 17.8795L15.9242 22.8699V20.9748C15.9383 20.726 16.0014 20.4825 16.1098 20.2581C16.2182 20.0337 16.3698 19.8329 16.5559 19.6672L23.8584 15.2453C24.07 14.983 24.1918 14.6597 24.2058 14.323C24.2058 13.5207 24.2058 12.8258 24.2058 12.3836L15.9242 17.3867V15.3653C15.916 15.1488 15.9592 14.9334 16.0504 14.7369C16.1415 14.5403 16.2779 14.3682 16.4485 14.2345L22.7908 10.4506Z" fill="#409EFF"/>
</svg>
