<svg width="32" height="32" viewBox="0 0 32 32" fill="none" xmlns="http://www.w3.org/2000/svg">
<rect width="32" height="32" fill="white"/>
<path d="M20.8489 13.0679L16.1886 10.3773C16.1312 10.3441 16.0662 10.3267 16 10.3267C15.9337 10.3267 15.8687 10.3441 15.8114 10.3773L11.151 13.0679C11.0937 13.101 11.0461 13.1485 11.0129 13.2058C10.9798 13.2631 10.9623 13.328 10.9622 13.3942V18.7755C10.9622 18.9101 11.0343 19.0346 11.151 19.1022L15.8114 21.7929C15.928 21.8601 16.0715 21.8601 16.1886 21.7929L20.8489 19.1022C20.9656 19.0349 21.0373 18.9104 21.0373 18.7755V13.3942C21.0373 13.2593 20.9656 13.1352 20.8489 13.0675V13.0679Z" fill="#8080F2"/>
<path d="M3.88252 15.5189L9.45114 5.8314C9.65331 5.48094 10.0272 5.22266 10.4315 5.22266H21.5684C21.9731 5.22266 22.3466 5.48094 22.5492 5.8314L28.1174 15.4977C28.2167 15.6717 28.269 15.8686 28.269 16.0689C28.269 16.2693 28.2167 16.4661 28.1174 16.6401L22.5492 26.2485C22.3466 26.5985 21.9731 26.7777 21.5684 26.7777H10.4315C10.0272 26.7777 9.65331 26.6041 9.45114 26.2537L3.88289 16.6297C3.7835 16.4614 3.73108 16.2696 3.73108 16.0741C3.73108 15.8787 3.7835 15.6868 3.88289 15.5185L3.88252 15.5189ZM8.49343 20.177C8.49343 20.3197 8.57928 20.4513 8.70266 20.5226L15.7957 24.6147C15.9191 24.6861 16.0737 24.6861 16.1971 24.6147L23.2954 20.5226C23.4188 20.4513 23.505 20.3197 23.505 20.177V11.9924C23.505 11.8501 23.4199 11.7181 23.2969 11.6468L16.2034 7.55543C16.1424 7.52041 16.0733 7.50199 16.0029 7.50199C15.9326 7.50199 15.8635 7.52041 15.8024 7.55543L8.7034 11.6472C8.58002 11.7185 8.49306 11.8504 8.49306 11.9928V20.1774L8.49343 20.177Z" fill="#4B32C3"/>
</svg>
