<svg width="32" height="32" viewBox="0 0 32 32" fill="none" xmlns="http://www.w3.org/2000/svg">
<rect width="32" height="32" fill="white"/>
<path d="M25.3455 17.441C24.44 17.4461 23.6559 17.6636 22.9982 17.9873C22.7554 17.5068 22.5126 17.0869 22.4721 16.7732C22.4266 16.409 22.3709 16.1864 22.4266 15.7514C22.4822 15.3163 22.7352 14.6991 22.7352 14.6485C22.7301 14.603 22.6795 14.3804 22.1585 14.3754C21.6374 14.3703 21.1872 14.4765 21.1366 14.6131C21.086 14.7497 20.9848 15.0634 20.9191 15.3871C20.828 15.8627 19.877 17.5472 19.3357 18.4325C19.1586 18.0885 19.0068 17.785 18.9765 17.5422C18.931 17.1779 18.8753 16.9554 18.931 16.5203C18.9866 16.0852 19.2395 15.4681 19.2395 15.4175C19.2345 15.3719 19.1839 15.1494 18.6628 15.1443C18.1418 15.1392 17.6916 15.2455 17.641 15.3821C17.5904 15.5187 17.5347 15.8424 17.4234 16.1561C17.3172 16.4697 16.0525 19.2824 15.7237 20.0159C15.5567 20.3903 15.41 20.6887 15.3038 20.8911C15.1976 21.0934 15.2987 20.9063 15.2886 20.9265C15.1976 21.0985 15.147 21.1946 15.147 21.1946V21.1997C15.0762 21.3262 15.0003 21.4476 14.9649 21.4476C14.9396 21.4476 14.889 21.1086 14.975 20.6432C15.1622 19.6669 15.6174 18.1442 15.6124 18.0885C15.6124 18.0632 15.6984 17.7951 15.319 17.6585C14.9497 17.5219 14.8182 17.7496 14.7878 17.7496C14.7575 17.7496 14.7322 17.8305 14.7322 17.8305C14.7322 17.8305 15.1419 16.1156 13.948 16.1156C13.1993 16.1156 12.1673 16.9301 11.6564 17.6737C11.3326 17.8508 10.6446 18.2251 9.91618 18.6248C9.63795 18.7765 9.3496 18.9384 9.07642 19.0851L9.02077 19.0244C7.57396 17.4815 4.89785 16.3888 5.00915 14.3147C5.04962 13.5609 5.31267 11.5728 10.1489 9.1648C14.1099 7.19187 17.2818 7.73316 17.8332 8.93715C18.6173 10.6571 16.1385 13.8543 12.0206 14.3147C10.4524 14.4917 9.62783 13.8847 9.42042 13.657C9.20289 13.4193 9.17254 13.4091 9.0916 13.4547C8.96007 13.5255 9.04101 13.738 9.0916 13.8644C9.21301 14.1831 9.71889 14.7497 10.5789 15.033C11.3326 15.2809 13.174 15.4175 15.3999 14.5575C17.8939 13.5913 19.8415 10.9101 19.2699 8.66904C18.6881 6.38752 14.9042 5.63882 11.3276 6.90858C9.19783 7.6674 6.89102 8.85116 5.23173 10.4042C3.2588 12.2456 2.94516 13.8543 3.07668 14.5221C3.53704 16.9048 6.8202 18.4578 8.13548 19.6062C8.06972 19.6416 8.00901 19.677 7.95337 19.7073C7.29572 20.0311 4.79162 21.3413 4.16433 22.7274C3.45609 24.2957 4.27562 25.4238 4.82197 25.5755C6.51161 26.046 8.24172 25.2012 9.1776 23.81C10.1084 22.4189 9.99712 20.6129 9.56712 19.7883L9.55195 19.7579L10.0679 19.4544C10.4018 19.2571 10.7306 19.075 11.019 18.9182C10.8571 19.3583 10.7408 19.8793 10.6801 20.6382C10.6092 21.5285 10.9735 22.6819 11.4541 23.1372C11.6665 23.3345 11.9195 23.3396 12.0763 23.3396C12.6328 23.3396 12.8857 22.8792 13.1639 22.3278C13.5079 21.655 13.8115 20.8759 13.8115 20.8759C13.8115 20.8759 13.432 22.9854 14.4691 22.9854C14.8485 22.9854 15.2279 22.4947 15.3999 22.2418V22.2469C15.3999 22.2469 15.41 22.2317 15.4303 22.1963C15.4707 22.1356 15.491 22.1002 15.491 22.1002V22.09C15.6427 21.827 15.9817 21.225 16.4876 20.2284C17.1401 18.9435 17.7674 17.3348 17.7674 17.3348C17.7674 17.3348 17.8281 17.7293 18.0153 18.3769C18.1266 18.7613 18.3694 19.1812 18.5566 19.591C18.4048 19.8035 18.3138 19.9249 18.3138 19.9249L18.3188 19.9299C18.1974 20.0918 18.0608 20.2638 17.9192 20.4358C17.4032 21.053 16.786 21.7562 16.7051 21.9585C16.609 22.1963 16.6292 22.3733 16.8164 22.515C16.953 22.6161 17.1958 22.6364 17.4538 22.6161C17.9192 22.5858 18.243 22.4694 18.4048 22.3986C18.6578 22.3076 18.9461 22.171 19.2244 21.9686C19.7303 21.5943 20.0388 21.0631 20.0085 20.3549C19.9933 19.9653 19.8668 19.5809 19.71 19.2166C19.7555 19.1509 19.8011 19.0851 19.8466 19.0143C20.6459 17.8457 21.2631 16.5608 21.2631 16.5608C21.2631 16.5608 21.3238 16.9554 21.5109 17.6029C21.6071 17.9317 21.7993 18.2909 21.9713 18.645C21.2226 19.2571 20.7521 19.9653 20.5902 20.4307C20.2918 21.2907 20.5245 21.6803 20.9646 21.7713C21.1619 21.8118 21.4452 21.7207 21.6577 21.6297C21.9207 21.5437 22.2394 21.397 22.5328 21.1794C23.0387 20.8051 23.5244 20.284 23.4991 19.5809C23.4839 19.2571 23.3979 18.9384 23.2815 18.6349C23.9189 18.3718 24.7435 18.2201 25.7907 18.3465C28.0419 18.6096 28.487 20.0159 28.401 20.6027C28.315 21.1896 27.8446 21.5133 27.6877 21.6145C27.5309 21.7106 27.4803 21.746 27.4955 21.8169C27.5157 21.9231 27.5866 21.918 27.7232 21.8978C27.9103 21.8674 28.9069 21.4172 28.9474 20.3346C29.0081 18.9435 27.6877 17.4258 25.3455 17.441ZM7.98372 23.294C7.24008 24.1085 6.19291 24.4171 5.74773 24.154C5.26714 23.8758 5.45432 22.6769 6.36996 21.8118C6.92643 21.2857 7.64984 20.8 8.12537 20.5016C8.2316 20.4358 8.39348 20.3397 8.58572 20.2233C8.61607 20.2031 8.63631 20.193 8.63631 20.193C8.67172 20.1727 8.71219 20.1475 8.75266 20.1222C9.0916 21.3565 8.76783 22.4391 7.98372 23.294ZM13.4219 19.596C13.1639 20.2284 12.6176 21.8523 12.2888 21.7612C12.0055 21.6853 11.8335 20.456 12.2331 19.2419C12.4355 18.6298 12.8655 17.9013 13.1184 17.6181C13.5282 17.1628 13.9733 17.011 14.0846 17.1982C14.2162 17.441 13.5838 19.2015 13.4219 19.596ZM17.9091 21.741C17.7978 21.7966 17.6966 21.8371 17.6511 21.8067C17.6157 21.7865 17.6966 21.7106 17.6966 21.7106C17.6966 21.7106 18.2581 21.1086 18.4807 20.8304C18.6072 20.6685 18.759 20.4813 18.9208 20.2689V20.3296C18.9208 21.058 18.2227 21.5437 17.9091 21.741ZM21.3693 20.9518C21.2884 20.8911 21.2985 20.7039 21.5717 20.1171C21.6779 19.8844 21.9207 19.4949 22.3406 19.1256C22.3912 19.2773 22.4215 19.424 22.4165 19.5606C22.4114 20.4712 21.7639 20.8102 21.3693 20.9518Z" fill="#CF649A"/>
</svg>
